<?xml version="1.0" standalone="no"?>
<!DOCTYPE svg PUBLIC "-//W3C//DTD SVG 1.1//EN" "http://www.w3.org/Graphics/SVG/1.1/DTD/svg11.dtd" >
<!--
2013-9-30: Created.
-->
<svg>
<metadata>
Created by iconfont
</metadata>
<defs>

<font id="iconfont" horiz-adv-x="1024" >
  <font-face
    font-family="iconfont"
    font-weight="500"
    font-stretch="normal"
    units-per-em="1024"
    ascent="896"
    descent="-128"
  />
    <missing-glyph />
    
    <glyph glyph-name="x" unicode="x" horiz-adv-x="1001"
d="M281 543q-27 -1 -53 -1h-83q-18 0 -36.5 -6t-32.5 -18.5t-23 -32t-9 -45.5v-76h912v41q0 16 -0.5 30t-0.5 18q0 13 -5 29t-17 29.5t-31.5 22.5t-49.5 9h-133v-97h-438v97zM955 310v-52q0 -23 0.5 -52t0.5 -58t-10.5 -47.5t-26 -30t-33 -16t-31.5 -4.5q-14 -1 -29.5 -0.5
t-29.5 0.5h-32l-45 128h-439l-44 -128h-29h-34q-20 0 -45 1q-25 0 -41 9.5t-25.5 23t-13.5 29.5t-4 30v167h911zM163 247q-12 0 -21 -8.5t-9 -21.5t9 -21.5t21 -8.5q13 0 22 8.5t9 21.5t-9 21.5t-22 8.5zM316 123q-8 -26 -14 -48q-5 -19 -10.5 -37t-7.5 -25t-3 -15t1 -14.5
t9.5 -10.5t21.5 -4h37h67h81h80h64h36q23 0 34 12t2 38q-5 13 -9.5 30.5t-9.5 34.5q-5 19 -11 39h-368zM336 498v228q0 11 2.5 23t10 21.5t20.5 15.5t34 6h188q31 0 51.5 -14.5t20.5 -52.5v-227h-327z" />
    

    
    <glyph glyph-name="password" unicode="&#58910;" d="M374.359539 559.730327c0 50.870598 13.406897 169.175027 137.631251 169.175027 119.755388 0 137.631251-105.990986 137.631251-169.175027l0-37.262672 103.223182 0 0 37.262672c0 165.479869-94.554391 272.393877-240.854433 272.393877s-240.854433-106.915032-240.854433-272.393877l0-37.262672 103.223182 0L374.359539 559.730327zM752.854433 488.054891L271.145567 488.054891c-56.987244 0-103.223182-46.235021-103.223182-103.21885l0-344.063173c0-56.986899 46.235938-103.21885 103.223182-103.21885l481.708865 0c56.988267 0 103.223182 46.231951 103.223182 103.21885L856.077615 384.836041C856.077615 441.81987 809.8427 488.054891 752.854433 488.054891zM546.407045 187.93964900000003l0-78.353532c0-18.950607-15.456666-34.406624-34.408068-34.406624-18.952426 0-34.408068 15.454994-34.408068 34.406624l0 78.353532c-20.497683 11.92868-34.408068 33.869389-34.408068 59.271942 0 38.001499 30.810996 68.812225 68.815114 68.812225 38.002071 0 68.815114-30.810726 68.815114-68.812225C580.815114 221.809037 566.903705 199.86832900000002 546.407045 187.93964900000003z"  horiz-adv-x="1024" />

    
    <glyph glyph-name="remark" unicode="&#58920;" d="M606.304 703.702l226.949-228.058-434.537-434.498-226.954 228.058 434.542 434.498zM781.546 811.235l154.626-155.174c19.978-20.116 19.978-52.757 0-72.884l-71.293-71.899-226.955 228.058 71.293 71.899c0 0 52.357 20.131 72.329 0zM135.31 232.784l226.976-228.079-275.131-48.523 48.155 276.602z"  horiz-adv-x="1024" />

    
    <glyph glyph-name="edit" unicode="&#58954;" d="M946.176 441.344c-19.456 0-34.816-15.36-34.816-34.816l0-403.456c0-33.792-27.648-62.464-62.464-62.464l-717.824 0c-33.792 0-62.464 27.648-62.464 62.464l0 717.824c0 33.792 27.648 62.464 62.464 62.464l434.176 0c19.456 0 34.816 15.36 34.816 34.816 0 19.456-15.36 34.816-34.816 34.816l-434.176 0c-72.704 0-131.072-58.368-131.072-131.072l0-717.824c0-72.704 58.368-131.072 131.072-131.072l717.824 0c72.704 0 131.072 58.368 131.072 131.072l0 403.456C980.992 425.984 965.632 441.344 946.176 441.344zM1009.664 880.64c-20.48 20.48-53.248 20.48-72.704 0l-482.304-482.304-26.624-81.92c-4.096-11.264 7.168-21.504 18.432-18.432l81.92 26.624 482.304 482.304C1030.144 827.392 1030.144 860.16 1009.664 880.64z"  horiz-adv-x="1026" />

    
    <glyph glyph-name="delete" unicode="&#58941;" d="M512.175497 120.94686200000001c12.68695 0 22.983457 10.296507 22.983457 22.982434L535.158954 465.685417c0 12.685927-10.296507 22.982434-22.982434 22.982434s-22.983457-10.296507-22.983457-22.982434l0-321.755098C489.193063 131.24336900000003 499.48957 120.94686200000001 512.175497 120.94686200000001zM650.071124 120.94686200000001c12.685927 0 22.982434 10.296507 22.982434 22.982434L673.053558 465.685417c0 12.685927-10.296507 22.982434-22.982434 22.982434s-22.982434-10.296507-22.982434-22.982434l0-321.755098C627.08869 131.24336900000003 637.384174 120.94686200000001 650.071124 120.94686200000001zM374.280894 120.94686200000001c12.685927 0 22.982434 10.296507 22.982434 22.982434L397.263327 465.685417c0 12.685927-10.296507 22.982434-22.982434 22.982434s-22.982434-10.296507-22.982434-22.982434l0-321.755098C351.29846 131.24336900000003 361.593943 120.94686200000001 374.280894 120.94686200000001zM833.930595 741.474624L696.035992 741.474624 696.035992 787.440515c0 25.372877-20.590967 45.964868-45.964868 45.964868L374.280894 833.405383c-25.372877 0-45.965891-20.546965-45.965891-45.964868l0-45.964868L190.420399 741.475648c-25.372877 0-45.964868-20.591991-45.964868-45.964868l0-45.964868c0-25.372877 20.591991-45.964868 45.964868-45.964868l0-574.563918c0-50.745754 41.138956-91.928712 91.930759-91.928712l459.650725-0.002047c50.745754 0 91.929736 41.138956 91.929736 91.930759L833.931618 603.580021c25.372877 0 45.965891 20.545942 45.965891 45.964868l0 45.964868C879.896486 720.882634 859.303472 741.474624 833.930595 741.474624zM374.280894 766.5036709999999c0 12.685927 10.296507 22.982434 22.982434 22.982434l229.825362 0c12.68695 0 22.982434-10.296507 22.982434-22.982434l0-22.982434c-22.246677 0-275.79023 0-275.79023 0L374.280894 766.5036709999999zM787.966751 29.016103000000044c0-25.372877-20.593014-45.963845-45.965891-45.963845L282.351158-16.94774099999995c-25.3739 0-45.965891 20.590967-45.965891 45.963845L236.385267 603.580021c31.578206 0 525.748119 0 551.582507 0L787.967774 29.016103000000044zM810.948161 649.544889L213.402833 649.544889c-12.685927 0-22.982434 10.296507-22.982434 22.981411 0 12.685927 10.296507 22.982434 22.982434 22.982434l597.546352 0c12.685927 0 22.982434-10.296507 22.982434-22.982434C833.930595 659.841396 823.635111 649.544889 810.948161 649.544889z"  horiz-adv-x="1024" />

    
    <glyph glyph-name="order" unicode="&#58934;" d="M549.891974-127.11464000000001c-6.627995 0-13.416991 0.19-20.397986 0.567-21.846985 1.178999-38.598974 19.843986-37.417974 41.689972 1.180999 21.843985 19.840986 38.600974 41.692971 37.414974 56.681961-3.061998 90.326938 8.334994 119.970918 40.656972 34.602976 37.728974 64.602956 105.986928 98.999932 196.870865 74.363949 196.514866 149.671898 426.666708 179.590877 519.638645L424.14006 810.903719 245.199182 320.01105399999994c-7.491995-20.553986-30.227979-31.139979-50.782965-23.648984-20.553986 7.490995-31.142979 30.228979-23.649984 50.780965L361.340103 869.951678c6.693995 18.362987 25.786982 29.09598 44.951969 25.281983l584.9946-116.47192c11.035992-2.196998 20.615986-8.982994 26.348982-18.664987 5.732996-9.680993 7.077995-21.343985 3.699997-32.075978-0.971999-3.091998-98.427933-312.093787-194.500867-565.975613-38.714974-102.28493-71.406951-175.16188-114.708922-222.377848C670.141892-106.10765500000002 619.520926-127.11163999999997 549.891974-127.11464000000001zM553.718971-127.53264000000001c-48.277967-4.333997-104.988928 22.898984-104.988928 22.898984L118.777269 45.14424199999996c0 0-156.011893 48.855967-109.165925 251.838828l450.684692-182.094876c0 0-17.368988-179.910877 123.749915-160.105891C609.189934-70.82367899999997 598.899941-119.48764500000004 553.718971-127.53264000000001zM762.689829 513.3999220000001c-3.461998 0-6.978995 0.457-10.477993 1.414999L579.239954 562.142889c-21.101986 5.772996-33.524977 27.559981-27.751981 48.660967 5.774996 21.099986 27.559981 33.523977 48.661967 27.750981l172.973882-47.327968c21.101986-5.772996 33.524977-27.558981 27.751981-48.660967C796.059806 524.965914 780.100817 513.3999220000001 762.689829 513.3999220000001zM692.540877 341.497039c-4.093997 0-8.255994 0.64-12.356992 1.983999l-172.354882 56.552961c-20.787986 6.819995-32.107978 29.20098-25.288983 49.985966 6.820995 20.785986 29.20198 32.109978 49.988966 25.285983l172.355882-56.551961c20.785986-6.819995 32.107978-29.20098 25.288983-49.984966C724.696855 352.084032 709.193865 341.497039 692.540877 341.497039zM627.764921 181.623149c-4.093997 0-8.254994 0.639-12.357992 1.983999L443.070047 240.161109c-20.787986 6.820995-32.106978 29.20098-25.285983 49.985966 6.820995 20.784986 29.19998 32.108978 49.989966 25.284983L640.109912 258.880096c20.786986-6.821995 32.106978-29.20198 25.286983-49.985966C659.919899 192.21014100000002 644.419909 181.623149 627.764921 181.623149zM473.295026 596.626865c-2.715998 0-5.469996 0.281-8.234994 0.864999l-1.960999 0.414c-1.420999 0.299-2.842998 0.598-4.228997 0.896999-21.385985 4.610997-34.982976 25.685982-30.371979 47.069968 4.612997 21.384985 25.694982 34.977976 47.072968 30.369979 1.250999-0.269 2.536998-0.54 3.819997-0.808999l2.061999-0.433c21.401985-4.525997 35.084976-25.546983 30.559979-46.948968C508.069003 609.411856 491.615014 596.626865 473.295026 596.626865zM411.440069 432.556977c-2.716998 0-5.470996 0.281-8.234994 0.864999l-1.918999 0.404c-1.437999 0.302-2.877998 0.605-4.279997 0.907999-21.384985 4.613997-34.977976 25.692982-30.360979 47.075968 4.615997 21.383985 25.690982 34.977976 47.079968 30.358979 1.263999-0.272 2.561998-0.546 3.858997-0.817999l2.012999-0.423c21.402985-4.525997 35.085976-25.544983 30.559979-46.948968C446.213045 445.340968 429.759056 432.556977 411.440069 432.556977zM348.462112 280.45908099999997c-2.722998 0-5.484996 0.28-8.253994 0.867999l-2.098999 0.441c-1.376999 0.29-2.750998 0.58-4.092997 0.868999-21.381985 4.622997-34.967976 25.704982-30.345979 47.087968 4.621997 21.381985 25.696982 34.966976 47.087968 30.343979 1.194999-0.259 2.417998-0.514 3.644998-0.772999l2.234998-0.471c21.400985-4.536997 35.070976-25.562983 30.534979-46.963968C383.224088 293.23007199999995 366.774099 280.45908099999997 348.462112 280.45908099999997z"  horiz-adv-x="1024" />

    
    <glyph glyph-name="avatar" unicode="&#59015;" d="M958.876 573.567c-24.429 57.756-59.396 109.622-103.93 154.155-44.533 44.533-96.398 79.5-154.155 103.928C640.982 856.947 577.464 869.774 512 869.774S383.018 856.947 323.208 831.65c-57.756-24.429-109.622-59.395-154.155-103.928-44.534-44.533-79.5-96.398-103.929-154.155C39.827 513.758 27 450.24 27 384.776c0-65.464 12.827-128.982 38.124-188.792 24.429-57.756 59.396-109.621 103.929-154.155 44.533-44.533 96.398-79.5 154.155-103.929 59.809-25.298 123.328-38.124 188.792-38.124s128.982 12.826 188.791 38.124c57.757 24.429 109.622 59.396 154.155 103.929 44.534 44.534 79.501 96.399 103.93 154.155C984.173 255.79399999999998 997 319.312 997 384.776 997 450.24 984.173 513.758 958.876 573.567zM912.826 215.46299999999997c-21.611-51.094-52.445-97.045-91.632-136.636-32.277 109.577-122.628 194.721-235.957 220.762 62.325 27.651 105.731 89.502 105.731 161.375 0 97.646-80.127 176.808-178.97 176.808-98.84 0-178.968-79.161-178.968-176.808 0-71.873 43.407-133.724 105.731-161.375-113.328-26.042-203.68-111.186-235.957-220.763-39.186 39.592-70.02 85.542-91.631 136.637C88.498 269.07500000000005 77 326.04100000000005 77 384.776s11.498 115.701 34.174 169.313c21.908 51.796 53.276 98.319 93.234 138.277 39.958 39.957 86.481 71.326 138.278 93.233C396.299 808.276 453.264 819.774 512 819.774c58.735 0 115.701-11.498 169.314-34.174 51.796-21.908 98.319-53.276 138.277-93.233 39.957-39.958 71.326-86.48 93.234-138.277C935.502 500.478 947 443.512 947 384.776S935.502 269.07500000000005 912.826 215.46299999999997z"  horiz-adv-x="1024" />

    
    <glyph glyph-name="analysis" unicode="&#58890;" d="M128 64L128 768 64 768 64 0 960 0 960 64ZM208.1 194.79999999999995c15-9.3 34.7-4.8 44.1 10.2l163.4 262.4 153-149.6 319.2 298.5c12.9 12.1 13.6 32.3 1.5 45.2-12.1 12.9-32.3 13.6-45.2 1.5L569.6 406.4 403.4 568.9l-205.5-330C188.5 223.89999999999998 193.1 204.20000000000005 208.1 194.79999999999995z"  horiz-adv-x="1024" />

    
    <glyph glyph-name="equipment2" unicode="&#58948;" d="M912.74752-105.72799999999995c-114.816-60.096-254.976 18.496-271.04 148.224-3.2 25.472-2.624 50.816 5.952 75.072 3.904 11.2 1.088 17.536-6.656 25.28C516.90752 266.36800000000005 393.06752 390.144 269.48352 514.1759999999999 261.09952 522.624 254.31552 524.096 242.47552 520.768 136.42752 490.944 26.21952 557.6320000000001 4.39552 665.6c-8 39.808-5.696 79.872 13.12 117.312C25.57952 784.256 28.07552 777.5360000000001 31.91552 773.76 68.39552 737.6 104.49152 700.992 141.16352 664.96c30.848-30.336 68.096-32.064 95.296-5.312 26.688 26.304 25.216 64.96-4.672 95.36C192.04352 795.264 151.85152 834.944 109.16352 877.568c59.648 24.448 115.968 25.664 171.456-3.264 78.976-41.216 119.552-134.464 95.04-219.968C371.88352 641.024 375.01952 634.24 383.59552 625.664c122.944-122.56 245.76-245.248 368.192-368.256 9.792-9.856 17.856-10.496 30.976-7.36 74.304 17.6 139.712-0.896 190.72-57.472 49.088-54.4 63.104-118.272 38.912-189.056-5.312-15.424-8.704-21.568-23.296-6.144-35.904 37.888-73.216 74.304-110.464 110.784-19.52 19.136-42.944 26.944-69.632 16.832-23.424-8.96-37.44-26.432-40.704-51.584-3.136-24.256 7.232-43.2 24.064-59.776C832.23552-25.47199999999998 871.72352-65.024 912.74752-105.72799999999995L912.74752-105.72799999999995zM912.74752-105.72799999999995M1.38752-27.648000000000025c-3.072 24.192 7.808 45.824 25.792 63.872 101.44 101.952 203.264 203.52 304.768 305.344 7.168 7.232 11.2 8.832 19.264 0.576C389.73952 302.72 428.84352 263.87199999999996 468.20352 225.34400000000005c7.616-7.488 7.936-11.648 0.128-19.328-102.016-101.376-202.944-203.904-305.728-304.448-49.728-48.704-124.416-35.136-153.856 25.024C2.09152-59.775999999999954 1.38752-55.615999999999985 1.38752-27.648000000000025L1.38752-27.648000000000025zM1.38752-27.648000000000025M647.46752 453.888C644.01152 456.96 640.55552 459.584 637.48352 462.592 621.61152 478.272 606.44352 494.72 589.86752 509.632 579.81952 518.72 582.05952 523.9680000000001 590.63552 532.352c37.76 36.992 73.984 75.52 112.64 111.616 30.336 28.416 56.96 59.328 71.04 98.432 22.336 61.824 63.232 103.232 125.056 125.376 19.456 6.976 38.08 25.92 55.936 24.64 18.304-1.344 29.184-27.584 45.76-39.936 20.16-15.168 22.144-29.056 8.192-51.072-19.008-30.016-33.856-62.784-49.536-94.784-5.568-11.392-12.928-19.328-24.64-24.064-86.208-35.392-158.08-90.176-219.008-160.256-18.048-20.736-38.72-39.168-58.24-58.624C654.69952 460.48 651.30752 457.472 647.46752 453.888L647.46752 453.888zM647.46752 453.888"  horiz-adv-x="1025" />

    
    <glyph glyph-name="clock" unicode="&#59408;" d="M736 384L512 384 512 608C512 625.9200000000001 497.92 640 480 640 462.08 640 448 625.9200000000001 448 608l0-256C448 334.08000000000004 462.08 320 480 320l256 0C753.92 320 768 334.08000000000004 768 352 768 369.91999999999996 753.92 384 736 384zM480 832C215.04 832 0 616.96 0 352 0 87.03999999999996 215.04-128 480-128c264.96 0 480 215.04 480 480C960 616.96 744.96 832 480 832zM480-64C250.24-64 64 122.24000000000001 64 352 64 581.76 250.24 768 480 768 709.76 768 896 581.76 896 352 896 122.24000000000001 709.76-64 480-64z"  horiz-adv-x="1024" />

    
    <glyph glyph-name="information" unicode="&#58931;" d="M897.139084-128L294.202689-128c-35.683831 0-64.74213 29.168383-64.74213 65.027601L229.460559 662.613753c0 35.827499 29.0583 64.997748 64.74213 64.997748l403.489436 0c28.882912 0 66.680719-14.913509 87.911898-34.655763l138.361838-128.907722c21.598746-20.14154 37.913487-57.627754 37.913487-87.225276l0-539.797004C961.881214-98.83161700000005 932.82478-128 897.139084-128zM294.202689 681.354061c-10.200445 0-18.484691-8.426049-18.484691-18.740308l0-725.586152c0-10.342247 8.284246-18.742174 18.484691-18.742174l602.934529 0c10.204176 0 18.486557 8.399927 18.486557 18.742174L915.623775 476.824606c0 16.630065-11.056857 42.083598-23.199621 53.368084l-138.361838 128.935709c-12.514063 11.625932-39.372559 22.225662-56.372056 22.225662L294.202689 681.354061zM189.29316 86.645939l-62.454634 0c-10.200445 0-18.484691 8.42978-18.484691 18.742174l0 725.589884c0 10.342247 8.284246 18.740308 18.484691 18.740308l403.46518 0c16.999497 0 43.882249-10.571743 56.396312-22.227528l62.995722-58.681943 67.85432 0-99.336322 92.537269c-21.227448 19.742254-58.995401 34.653897-87.908167 34.653897l-403.46518 0c-35.713684 0-64.738399-29.168383-64.738399-65.023869l0-725.589884c0-35.825633 29.026581-64.995882 64.738399-64.995882l62.454634 0L189.295026 86.645939zM946.30907 498.708823l-192.817696-0.513101c-22.91415-0.05784-41.456682 18.740308-41.229051 41.768274l1.488925 155.191545M801.258263 362.735236c0-0.513101-0.41981-0.932911-0.932911-0.932911L394.443934 361.802325c-0.513101 0-0.932911 0.41981-0.932911 0.932911l0 26.076717c0 0.513101 0.41981 0.932911 0.932911 0.932911l405.881418 0c0.513101 0 0.932911-0.41981 0.932911-0.932911L801.258263 362.735236zM809.745884 233.312547c0-0.513101-0.41981-0.932911-0.932911-0.932911L394.443934 232.379636c-0.513101 0-0.932911 0.41981-0.932911 0.932911l0 26.018877c0 0.513101 0.41981 0.932911 0.932911 0.932911l414.369039 0c0.513101 0 0.932911-0.41981 0.932911-0.932911L809.745884 233.312547zM809.745884 103.83574899999996c0-0.513101-0.41981-0.932911-0.932911-0.932911L394.443934 102.90283899999997c-0.513101 0-0.932911 0.41981-0.932911 0.932911l0 26.076717c0 0.513101 0.41981 0.932911 0.932911 0.932911l414.369039 0c0.513101 0 0.932911-0.41981 0.932911-0.932911L809.745884 103.83574899999996z"  horiz-adv-x="1024" />

    
    <glyph glyph-name="key" unicode="&#59349;" d="M719.243346-127.99079099999994c-69.851973 0-135.352011 25.732999-184.82981 72.770317-92.845698 88.264553-102.162501 229.094087-21.833346 327.588193l1.459172 1.937035L42.796408 722.244957 209.291405 880.232552c10.767788 10.238762 25.033087 15.767448 40.169182 15.767448 15.136095 0 29.393207-5.528686 40.169182-15.767448 10.767788-10.238762 16.586057-23.795963 16.586057-38.180984s-5.819292-27.942222-16.586057-37.907772l-86.156633-81.898839 88.477392-84.109085 86.156633 81.898839c10.775975 10.238762 25.041273 15.775634 40.177368 15.775634 15.126886 0 29.393207-5.536872 40.169182-15.775634 10.767788-10.238762 16.586057-23.795963 16.586057-38.180984 0-14.38502-5.819292-27.951431-16.586057-38.180984l-86.164819-81.898839 230.817261-219.401747 1.748755 0.827819c35.510269 16.595267 75.380659 25.17839 114.969651 25.17839 69.851973 0 135.343825-25.732999 184.82981-72.770317 49.187192-46.755921 76.549224-109.287476 76.549224-175.692078 0-66.396416-27.072449-128.927971-76.549224-175.692078C854.587171-102.257792 789.095318-127.99079099999994 719.243346-127.99079099999994zM719.243346 261.027927c-39.588992 0-76.848017-14.666418-104.782052-41.227235-57.634222-54.784436-57.634222-144.148997 0-198.933433 27.934036-26.559794 65.19306-41.227235 104.782052-41.227235 39.579783 0 76.83983 14.666418 104.782052 41.227235 57.634222 54.784436 57.634222 144.148997 0 198.933433C795.79257 246.36150899999996 758.823129 261.027927 719.243346 261.027927z"  horiz-adv-x="1024" />

    
    <glyph glyph-name="warning" unicode="&#58999;" d="M553.984 342.01599999999996l0 256-84.010667 0 0-256 84.010667 0zM512 157.99466700000005q22.016 0 38.997333 16.981333t16.981333 38.997333-16.981333 38.016-38.997333 16-38.997333-16-16.981333-38.016 16.981333-38.997333 38.997333-16.981333zM672 768l224-224 0-320-224-224-320 0-224 224 0 320 224 224 320 0z"  horiz-adv-x="1024" />

    
    <glyph glyph-name="measure" unicode="&#58897;" d="M236.125091 725.922909H108.404364c-23.179636 0-23.179636-18.711273-23.179637-31.557818V640H195.490909c3.165091 0 5.818182-4.002909 5.818182-7.168s-2.653091-7.214545-5.818182-7.214545H85.224727v-28.625455h63.860364c3.165091 0 5.771636-3.909818 5.771636-7.074909 0-3.258182-2.606545-7.168-5.771636-7.168H85.224727v-28.625455H195.490909c3.165091 0 4.608-3.444364 4.608-6.656s-1.442909-7.633455-4.608-7.633454H85.224727v-28.625455h63.860364c3.165091 0 5.771636-4.002909 5.771636-7.168s-2.606545-7.214545-5.771636-7.214545H85.224727v-28.625455H195.490909c3.165091 0 5.818182-3.909818 5.818182-7.074909 0-3.258182-2.653091-7.168-5.818182-7.168H85.224727v-28.625454h63.860364c3.165091 0 5.771636-4.002909 5.771636-7.168s-2.606545-7.168-5.771636-7.168H85.224727v-28.625455H195.490909c3.165091 0 5.818182-3.909818 5.818182-7.074909 0-3.258182-2.653091-7.168-5.818182-7.168H85.224727v-28.625455h63.860364c3.165091 0 4.468364-4.002909 4.468364-7.168s-1.256727-7.074909-4.468364-7.074909H85.224727v-28.718545H195.490909c3.165091 0 5.818182-3.909818 5.818182-7.074909s-2.653091-7.354182-5.818182-7.354182H85.224727v-28.625455h63.860364c3.165091 0 5.771636-3.909818 5.771636-7.168 0-3.165091-2.606545-7.074909-5.771636-7.074909H85.224727v-28.625454H195.490909c3.165091 0 5.818182-4.002909 5.818182-7.168s-2.653091-7.261091-5.818182-7.261091H85.224727v-28.625455h63.860364c3.165091 0 5.771636-3.909818 5.771636-7.168 0-3.165091-2.606545-7.074909-5.771636-7.074909H85.224727v-28.625454H195.490909c3.165091 0 5.818182-4.002909 5.818182-7.168s-2.653091-7.261091-5.818182-7.261091H85.224727v-54.365091c0-12.8 10.426182-17.175273 23.226182-17.175273h127.674182c12.8 0 35.188364 4.375273 35.188364 17.175273V694.365091c0 12.8 0 31.557818-35.188364 31.557818z m637.952-606.673454l-12.706909-12.101819c-4.561455-4.468364-11.869091-3.444364-16.430546 1.070546s-4.561455 11.543273 0 16.011636l13.405091 13.451637-34.257454 37.376-32.349091-32.349091a11.636364 11.636364 0 1 0-16.477091 16.477091l33.140364 33.093818-34.257455 37.376-17.221818-17.268364a11.636364 11.636364 0 1 0-16.430546 16.477091l17.92 17.92-34.257454 37.376-36.864-36.910545a11.636364 11.636364 0 1 0-16.477091 16.47709l37.655273 37.562182-39.842909 43.473455-16.197819-16.197818a11.636364 11.636364 0 1 0-16.430545 16.477091l16.849454 16.802909-39.796363 43.473454-41.844364-41.890909a11.589818 11.589818 0 0 0-16.430545 0 11.729455 11.729455 0 0 0 0 16.477091l42.635636 42.542545-34.257454 37.376-15.127273-15.080727a11.636364 11.636364 0 1 0-16.430546 16.477091l15.825455 15.825455-34.257455 37.376-34.769454-34.816a11.636364 11.636364 0 1 0-16.430546 16.477091l35.514182 35.467636-39.842909 43.194182-14.103273-14.103273a11.636364 11.636364 0 1 0-16.430545 16.477091l14.754909 14.708364-34.257455 37.376-33.698909-33.745455a11.636364 11.636364 0 1 0-16.430545 16.477091l31.557818 34.443636-73.309091 77.451637c-8.843636 9.262545-15.778909 6.423273-15.778909-6.376728v-661.736727c0-12.8 10.007273-16.989091 22.807273-16.989091h603.554909c12.8 0 16.337455 4.747636 7.819636 14.289455l-60.043636 66.234182zM385.861818 124.64872700000001V481.28l346.344727-356.631273H385.861818z"  horiz-adv-x="1024" />

    
    <glyph glyph-name="fail" unicode="&#58884;" d="M512 456.3968L367.1552 601.2416000000001a51.2 51.2 0 0 1-72.3968-72.448L439.6032 384l-144.8448-144.8448a51.2 51.2 0 0 1 72.448-72.3968L512 311.6032l144.8448-144.8448a51.2 51.2 0 0 1 72.3968 72.448L584.3968 384l144.8448 144.8448a51.2 51.2 0 0 1-72.448 72.3968L512 456.3968zM512-128C229.2224-128 0 101.2224 0 384S229.2224 896 512 896s512-229.2224 512-512-229.2224-512-512-512z"  horiz-adv-x="1024" />

    
    <glyph glyph-name="lookup" unicode="&#58975;" d="M518.58432 871.19872c-271.62624 0-491.82208-220.19584-491.82208-491.82208s220.19584-491.82208 491.82208-491.82208 491.81696 220.19584 491.81696 491.82208-220.19072 491.82208-491.81696 491.82208z m307.38432-799.2064c-39.936-39.936-86.42048-71.28064-138.1888-93.17376-53.57056-22.66624-110.4896-34.1504-169.19552-34.1504-58.70592 0-115.6352 11.48416-169.20576 34.1504-51.75296 21.89312-98.2528 53.23776-138.17856 93.17376-39.936 39.94112-71.29088 86.42048-93.17888 138.19392-22.66112 53.57056-34.1504 110.48448-34.1504 169.19552s11.48416 115.6352 34.1504 169.20576c21.88288 51.75808 53.23776 98.2528 93.17888 138.18368 39.92576 39.936 86.43072 71.29088 138.17856 93.17888 53.57056 22.656 110.49984 34.1504 169.20576 34.1504 58.70592 0 115.62496-11.48928 169.19552-34.1504 51.76832-21.888 98.2528-53.24288 138.1888-93.17888 39.936-39.92576 71.28064-86.43072 93.17376-138.18368 22.67648-53.57056 34.1504-110.49472 34.1504-169.20576s-11.47392-115.62496-34.1504-169.19552c-21.89312-51.77856-53.23776-98.25792-93.17376-138.19392zM786.29376 154.70592l0.07168 0.1792-159.58016 160.3072c31.41632 38.07232 49.4848 85.3504 50.96448 133.56032 2.9696 58.67008-19.39968 119.296-59.70944 162.11968-34.46272 37.31968-82.92864 62.4384-132.9152 68.87936a210.99008 210.99008 0 0 1-29.53728 2.06336c-49.47968 0-97.69472-16.50688-135.74144-46.47424-44.11904-33.77152-74.55744-84.48-83.56864-139.09504-8.90368-50.88768 0.72192-105.50784 26.45504-149.8112a223.13984 223.13984 0 0 1 72.42752-76.43648c27.36128-17.78176 58.81344-29.39392 90.9568-33.55648 9.63072-1.35168 19.54304-2.03264 29.39392-2.03264 45.6448 0 90.7776 14.336 127.5136 40.39168l159.37024-160.15872 2.92864-2.78528 0.0768 0.0768a29.48096 29.48096 0 0 1 18.82624-6.7328c16.28672 0 29.53728 13.35808 29.53728 29.7984a29.47072 29.47072 0 0 1-7.47008 19.70688z m-177.73056 226.64192c-23.63392-48.58368-71.14752-84.0704-124.04736-92.69248a171.13088 171.13088 0 0 0-75.18208 3.86048c-47.44704 13.08672-88.05376 47.69792-108.66688 92.6464-23.85408 49.95584-20.86912 112.80384 7.60832 160.2304 25.32864 43.81696 69.9904 74.59328 119.40864 82.28864l3.51232 0.52736c1.83808 0.28672 3.70688 0.5888 5.50912 0.8192a176.10752 176.10752 0 0 0 18.45248 0.95232c25.23648 0 50.176-5.4784 72.1664-15.82592 40.20736-18.52416 72.25856-52.93056 87.92064-94.45376 17.17248-44.30336 14.67904-96.02048-6.6816-138.35264z"  horiz-adv-x="1024" />

    
    <glyph glyph-name="success" unicode="&#59002;" d="M512 384m-512 0a512 512 0 1 1 1024 0 512 512 0 1 1-1024 0ZM448.8192 239.15520000000004a38.4 38.4 0 0 0-54.3232-54.2976l-162.9184 162.944a38.4 38.4 0 1 0 54.2976 54.2976l162.944-162.944zM448.4608 184.85760000000005a38.4512 38.4512 0 0 0-54.2976 54.3488l343.936 343.9104a38.4 38.4 0 1 0 54.2976-54.2976L448.4608 184.85760000000005z"  horiz-adv-x="1024" />

    
    <glyph glyph-name="system" unicode="&#58984;" d="M932.4 512.9c-37.6 6.3-70.2 29.4-89.5 63.2-19.6 34.5-22.7 75.5-8.6 112.5 5.6 14.6-0.2 31.1-13.7 39l-168 98.6c-13.8 8.1-31.4 4.8-41.3-7.8-24.2-30.7-60.4-48.3-99.2-48.3-38.8 0-75 17.6-99.2 48.3-9.9 12.5-27.5 15.9-41.3 7.8l-168.1-98.7c-13.5-7.9-19.3-24.4-13.7-39 14.1-37 11-78-8.6-112.5-19.2-33.8-51.8-56.9-89.5-63.2-15.4-2.6-26.7-15.9-26.7-31.6v-198c0-15.6 11.3-29 26.7-31.6 37.7-6.4 70.3-29.4 89.5-63.2 19-33.5 22.5-73.6 9.5-109.9-5.2-14.5 0.7-30.6 13.9-38.4L373.7-59c5.1-3 10.6-4.4 16.2-4.4 9.3 0 18.4 4 24.7 11.6 24.3 29.4 59.8 46.2 97.5 46.2s73.2-16.8 97.5-46.2c10-12.1 27.3-15.2 40.9-7.2l169.1 99.3c13.3 7.8 19.1 23.9 13.9 38.4-13 36.3-9.5 76.4 9.5 109.9 19.2 33.8 51.8 56.8 89.5 63.2 15.4 2.6 26.7 15.9 26.7 31.6v198c-0.1 15.5-11.4 28.9-26.8 31.5z m-37.3-204.5c-45.3-14.6-83.7-45.7-107.8-88.2-23.8-41.9-31.2-90.6-21.4-137.2l-126-74c-34.9 31.7-80.1 49.5-127.7 49.5-47.6 0-92.9-17.8-127.7-49.5l-126 74c9.8 46.5 2.3 95.3-21.4 137.2-24.1 42.5-62.5 73.6-107.8 88.2V456.3c45.2 14.6 83.7 45.7 107.8 88.2 24.5 43.1 31.6 93.1 20.7 140.6L381.7 758c35.1-33.2 81.3-51.8 130.3-51.8 49 0 95.2 18.6 130.3 51.8l124.1-72.9c-10.9-47.5-3.7-97.5 20.7-140.6 24.1-42.5 62.5-73.7 107.8-88.2v-147.9zM511.3 543.5c-88.1 0-159.7-71.7-159.7-159.7 0-88.1 71.7-159.7 159.7-159.7 88.1 0 159.7 71.7 159.7 159.7 0.1 88.1-71.6 159.7-159.7 159.7z m0-255.5c-52.8 0-95.7 42.9-95.7 95.7 0 52.8 42.9 95.7 95.7 95.7 52.8 0 95.7-42.9 95.7-95.7 0.1-52.7-42.9-95.7-95.7-95.7z"  horiz-adv-x="1024" />

    
    <glyph glyph-name="equipment" unicode="&#59067;" d="M674.816 742.4H166.912C108.544 742.4 61.44 695.296 61.44 636.928v-210.944c0-58.368 47.104-105.472 105.472-105.472h193.536L420.864 435.2 481.28 321.53599999999994h193.536c58.368 0 105.472 47.104 105.472 105.472V636.928C779.264 695.296 732.16 742.4 674.816 742.4zM258.048 477.184c-36.864 0-66.56 29.696-66.56 66.56s29.696 66.56 66.56 66.56 66.56-29.696 66.56-66.56-29.696-66.56-66.56-66.56z m322.56 0c-36.864 0-66.56 29.696-66.56 66.56s29.696 66.56 66.56 66.56 66.56-29.696 66.56-66.56-29.696-66.56-66.56-66.56zM674.816 306.17600000000004H481.28c-6.144 0-11.264 3.072-13.312 8.192l-47.104 88.064-47.104-88.064c-3.072-5.12-8.192-8.192-13.312-8.192H166.912c-66.56 0-120.832 54.272-120.832 120.832V636.928c0 66.56 54.272 120.832 120.832 120.832h507.904c31.744 0 62.464-12.288 84.992-34.816 22.528-22.528 34.816-53.248 34.816-84.992v-210.944c0-67.584-54.272-120.832-119.808-120.832z m-184.32 30.72h184.32c49.152 0 90.112 39.936 90.112 90.112V636.928c0 23.552-9.216 46.08-26.624 63.488s-39.936 26.624-63.488 26.624H166.912c-49.152 0-90.112-39.936-90.112-90.112v-210.944c0-49.152 39.936-90.112 90.112-90.112h184.32l56.32 105.472c3.072 5.12 8.192 8.192 13.312 8.192s11.264-3.072 13.312-8.192l56.32-104.448z m90.112 124.928c-45.056 0-81.92 36.864-81.92 81.92s36.864 81.92 81.92 81.92 81.92-36.864 81.92-81.92c0-21.504-8.192-43.008-23.552-58.368s-36.864-23.552-58.368-23.552z m0 133.12c-28.672 0-51.2-23.552-51.2-51.2s23.552-51.2 51.2-51.2c13.312 0 26.624 5.12 36.864 15.36 9.216 9.216 15.36 22.528 15.36 36.864-1.024 27.648-23.552 50.176-52.224 50.176z m-322.56-133.12c-45.056 0-81.92 36.864-81.92 81.92s36.864 81.92 81.92 81.92 81.92-36.864 81.92-81.92c0-21.504-8.192-43.008-23.552-58.368-16.384-15.36-36.864-23.552-58.368-23.552z m0 133.12c-28.672 0-51.2-23.552-51.2-51.2s23.552-51.2 51.2-51.2c13.312 0 26.624 5.12 36.864 15.36 9.216 9.216 15.36 22.528 15.36 36.864-1.024 27.648-24.576 50.176-52.224 50.176zM952.9856 329.72799999999995c-4.096 20.48-16.384 32.768-32.768 32.768h-2.048c-31.744 0-57.344 25.6-57.344 57.344 0 8.192 4.096 18.432 5.12 21.504 8.192 17.408 2.048 38.912-15.36 51.2l-66.56 36.864c-5.12 2.048-11.264 3.072-16.384 3.072-12.288 0-23.552-5.12-31.744-13.312-8.192-8.192-30.72-26.624-45.056-26.624-15.36 0-36.864 18.432-45.056 26.624-9.216 8.192-20.48 13.312-32.768 13.312-6.144 0-11.264-1.024-16.384-3.072l-1.024-1.024-67.584-37.888-2.048-1.024c-14.336-10.24-20.48-31.744-13.312-49.152 1.024-1.024 5.12-12.288 5.12-21.504 0-31.744-25.6-57.344-57.344-57.344h-2.048c-16.384 0-28.672-13.312-32.768-32.768-1.024-3.072-6.144-30.72-6.144-53.248s5.12-50.176 6.144-53.248c4.096-20.48 16.384-32.768 32.768-32.768h3.072c31.744 0 57.344-25.6 57.344-57.344 0-8.192-4.096-18.432-5.12-21.504-8.192-17.408-2.048-38.912 15.36-51.2l64.512-36.864c5.12-2.048 11.264-4.096 16.384-4.096 12.288 0 23.552 5.12 31.744 13.312 8.192 9.216 30.72 27.648 46.08 27.648s37.888-19.456 46.08-28.672c8.192-9.216 19.456-14.336 32.768-14.336 6.144 0 11.264 1.024 18.432 4.096l65.536 36.864 2.048 1.024c15.36 11.264 21.504 32.768 14.336 50.176-1.024 1.024-5.12 12.288-5.12 21.504 0 31.744 25.6 57.344 57.344 57.344h3.072c16.384 0 28.672 13.312 32.768 32.768 0 1.024 6.144 29.696 6.144 53.248-2.048 24.576-7.168 52.224-8.192 56.32zM766.6176 3.0720000000000027c-16.384 0-32.768 7.168-44.032 19.456-10.24 10.24-27.648 23.552-34.816 23.552-7.168 0-26.624-13.312-34.816-22.528-11.264-12.288-27.648-19.456-43.008-19.456-7.168 0-14.336 2.048-22.528 5.12l-2.048 1.024-66.56 36.864c-22.528 16.384-30.72 45.056-20.48 69.632 1.024 3.072 3.072 10.24 3.072 15.36 0 22.528-18.432 41.984-41.984 41.984s-43.008 18.432-48.128 45.056V220.15999999999997c-4.096 21.504-6.144 39.936-6.144 54.272s2.048 32.768 6.144 54.272v1.024c5.12 27.648 23.552 46.08 47.104 46.08h3.072c22.528 0 41.984 18.432 41.984 41.984 0 5.12-3.072 13.312-4.096 15.36-10.24 24.576-2.048 54.272 19.456 69.632l3.072 2.048 68.608 37.888c21.504 9.216 50.176 4.096 66.56-13.312 9.216-10.24 26.624-21.504 33.792-21.504 7.168 0 24.576 11.264 34.816 21.504 10.24 11.264 26.624 17.408 43.008 17.408 8.192 0 15.36-1.024 22.528-4.096l2.048-1.024 67.584-37.888c22.528-16.384 31.744-45.056 21.504-69.632-1.024-3.072-3.072-10.24-3.072-15.36 0-22.528 18.432-41.984 41.984-41.984h2.048c23.552 0 43.008-18.432 48.128-45.056v-1.024c4.096-21.504 6.144-40.96 6.144-55.296 0-14.336-2.048-32.768-6.144-54.272v-2.048c-5.12-26.624-24.576-45.056-47.104-45.056h-3.072c-22.528 0-41.984-18.432-41.984-41.984 0-5.12 3.072-13.312 4.096-15.36 10.24-24.576 2.048-54.272-19.456-69.632l-5.12-1.024-66.56-37.888c-9.216-3.072-16.384-5.12-25.6-5.12z m-78.848 73.728c26.624 0 56.32-31.744 57.344-33.792 5.12-6.144 13.312-9.216 21.504-9.216 4.096 0 7.168 1.024 11.264 2.048l65.536 36.864c9.216 6.144 13.312 20.48 8.192 31.744 0 0-6.144 14.336-6.144 27.648 0 39.936 32.768 72.704 72.704 72.704h3.072c10.24 0 15.36 11.264 17.408 20.48v1.024c4.096 24.576 5.12 39.936 5.12 49.152 0 9.216-1.024 24.576-5.12 50.176v1.024c-2.048 9.216-7.168 20.48-17.408 20.48h-2.048c-39.936 0-72.704 32.768-72.704 72.704 0 10.24 4.096 20.48 5.12 25.6l1.024 2.048c5.12 11.264 1.024 24.576-10.24 31.744l-64.512 35.84c-10.24 4.096-23.552 1.024-30.72-6.144-2.048-2.048-31.744-31.744-56.32-31.744-26.624 0-56.32 31.744-56.32 31.744-5.12 5.12-13.312 9.216-20.48 9.216-4.096 0-7.168-1.024-10.24-2.048l-67.584-37.888c-9.216-6.144-13.312-20.48-8.192-31.744 0 0 6.144-14.336 6.144-27.648 0-39.936-32.768-72.704-72.704-72.704h-3.072c-10.24 0-15.36-10.24-17.408-20.48v-1.024c-4.096-24.576-5.12-39.936-5.12-49.152 0-8.192 1.024-24.576 5.12-49.152v-1.024c2.048-9.216 7.168-19.456 17.408-19.456h3.072c39.936 0 72.704-32.768 72.704-72.704 0-10.24-4.096-20.48-5.12-25.6l-1.024-2.048c-5.12-10.24-1.024-24.576 9.216-31.744l62.464-35.84c4.096-1.024 7.168-2.048 10.24-2.048 7.168 0 15.36 3.072 20.48 9.216 6.144 5.12 33.792 31.744 57.344 31.744zM688.7936 376.832c-55.296 0-100.352-45.056-100.352-101.376s45.056-101.376 100.352-101.376 100.352 46.08 100.352 101.376-45.056 101.376-100.352 101.376zM688.7936 159.74400000000003c-63.488 0-115.712 52.224-115.712 116.736s52.224 115.712 115.712 115.712c63.488 0 115.712-52.224 115.712-116.736s-52.224-115.712-115.712-115.712z m0 201.728c-47.104 0-84.992-38.912-84.992-86.016s37.888-86.016 84.992-86.016 84.992 38.912 84.992 86.016-37.888 86.016-84.992 86.016z"  horiz-adv-x="1024" />

    
    <glyph glyph-name="notice" unicode="&#58887;" d="M957.44 92.15999999999997L870.4 225.27999999999997V501.76c0 56.32-25.6 117.76-66.56 168.96-46.08 51.2-107.52 97.28-174.08 117.76 0 0-5.12 0-15.36 5.12v10.24c0 51.2-46.08 92.16-102.4 92.16S409.6 855.04 409.6 803.84V793.6h-15.36c-66.56-20.48-133.12-66.56-174.08-117.76C174.08 624.64 153.6 563.2 153.6 501.76v-276.48l-92.16-143.36c-10.24-15.36-10.24-35.84 0-56.32 10.24-15.36 30.72-25.6 56.32-25.6h225.28C353.28-71.67999999999995 424.96-128 512-128s158.72 56.32 174.08 133.12h225.28c35.84 0 61.44 25.6 61.44 56.32 0 10.24-5.12 20.48-15.36 30.72zM512 849.92c25.6 0 46.08-20.48 51.2-40.96h-15.36-5.12-56.32-20.48c0 20.48 20.48 40.96 46.08 40.96z m0-931.84c-56.32 0-107.52 35.84-117.76 81.92h235.52c-10.24-46.08-61.44-81.92-117.76-81.92z m399.36 133.12H112.64c-5.12 0-5.12 0-5.12 5.12v10.24L204.8 215.03999999999996V501.76c0 102.4 92.16 209.92 209.92 245.76 5.12 0 35.84 10.24 66.56 15.36H542.72c30.72-5.12 66.56-15.36 71.68-15.36 117.76-40.96 204.8-143.36 204.8-245.76v-281.6c0-5.12 0-10.24 5.12-10.24l92.16-138.24 5.12-5.12v-5.12c0-10.24-5.12-10.24-10.24-10.24z"  horiz-adv-x="1024" />

    
    <glyph glyph-name="owe" unicode="&#58947;" d="M519.36-103.74400000000003C250.432-103.74400000000003 31.616 115.072 31.616 384S250.432 871.744 519.36 871.744 1007.104 652.928 1007.104 384s-218.816-487.744-487.744-487.744z m0 912.896A425.6 425.6 0 0 1 94.208 384a425.6 425.6 0 0 1 425.152-425.152A425.6 425.6 0 0 1 944.512 384a425.6 425.6 0 0 1-425.152 425.152zM282.56 218.048c131.584 41.28 202.048 112.32 211.52 212.928 1.28 17.152 2.176 43.328 2.752 78.464h37.632c-0.896-33.344-1.472-59.648-1.792-78.912 25.664-107.008 95.04-174.976 208.32-203.776-9.792-12.8-18.944-25.28-27.52-37.12-103.744 34.88-169.28 95.36-196.48 181.696-21.696-82.56-90.368-145.408-206.016-188.608a821.76 821.76 0 0 1-28.416 35.328z m348.288 224.448c11.648 21.376 25.28 52.288 40.832 92.672h-261.12c-22.336-41.6-47.744-80.448-76.16-116.544a187.2 187.2 0 0 1-30.72 22.912c50.496 61.504 87.808 126.976 112 196.416l36.224-14.272a939.52 939.52 0 0 0-24.32-54.592h282.24v-33.472a2476.224 2476.224 0 0 0-43.584-106.432 162.112 162.112 0 0 1-35.392 13.312z"  horiz-adv-x="1024" />

    
    <glyph glyph-name="user" unicode="&#58911;" d="M592.352-56.44799999999998h-179.68c-169.152 0-302.784 0-302.784 85.952V47.200000000000045c0 164.416 135.808 298.144 302.784 298.144h179.68c166.976 0 302.816-133.76 302.816-298.144v-17.696c0-85.952-140.32-85.952-302.816-85.952z m-98.816 424.544c-132.224 0-239.808 106.016-239.808 236.288S361.312 840.672 493.536 840.672s239.808-105.984 239.808-236.288S625.76 368.096 493.536 368.096z"  horiz-adv-x="1024" />

    


  </font>
</defs>
</svg>
